HIERARCHY
ROOT Hips
{
    OFFSET 0.000000 0.000000 0.000000
    CHANNELS 6 Xposition Yposition Zposition Zrotation Xrotation Yrotation
    JOINT Spine
    {
        OFFSET -0.000000 14.517291 0.000000
        CHANNELS 3 Zrotation Xrotation Yrotation
        JOINT Spine1
        {
            OFFSET -0.000000 37.558300 0.000000
            CHANNELS 3 Zrotation Xrotation Yrotation
            JOINT Neck
            {
                OFFSET -0.000000 37.404057 3.400369
                CHANNELS 3 Zrotation Xrotation Yrotation
                JOINT Head
                {
                    OFFSET -0.000000 24.785618 -3.540803
                    CHANNELS 3 Zrotation Xrotation Yrotation
                    End Site
                    {
                        OFFSET -0.000000 35.408028 0.000000
                    }
                }
            }
            JOINT LeftShoulder
            {
                OFFSET 6.992933 33.973492 -0.192664
                CHANNELS 3 Zrotation Xrotation Yrotation
                JOINT LeftArm
                {
                    OFFSET 21.527611 0.000000 0.000000
                    CHANNELS 3 Zrotation Xrotation Yrotation
                    JOINT LeftForeArm
                    {
                        OFFSET 56.353916 0.000000 0.000000
                        CHANNELS 3 Zrotation Xrotation Yrotation
                        JOINT LeftHand
                        {
                            OFFSET 47.774071 0.000000 0.000000
                            CHANNELS 3 Zrotation Xrotation Yrotation
                            End Site
                            {
                                OFFSET 26.556021 0.000000 0.000000
                            }
                        }
                    }
                }
            }
            JOINT RightShoulder
            {
                OFFSET -7.065357 33.973492 -0.192664
                CHANNELS 3 Zrotation Xrotation Yrotation
                JOINT RightArm
                {
                    OFFSET -21.527611 0.000000 0.000000
                    CHANNELS 3 Zrotation Xrotation Yrotation
                    JOINT RightForeArm
                    {
                        OFFSET -56.353916 0.000000 0.000000
                        CHANNELS 3 Zrotation Xrotation Yrotation
                        JOINT RightHand
                        {
                            OFFSET -47.774071 0.000000 0.000000
                            CHANNELS 3 Zrotation Xrotation Yrotation
                            End Site
                            {
                                OFFSET -26.556021 0.000000 0.000000
                            }
                        }
                    }
                }
            }
        }
    }
    JOINT LeftUpLeg
    {
        OFFSET 17.704014 0.000000 0.000000
        CHANNELS 3 Zrotation Xrotation Yrotation
        JOINT LeftLeg
        {
            OFFSET -0.000000 -81.181816 0.000000
            CHANNELS 3 Zrotation Xrotation Yrotation
            JOINT LeftFoot
            {
                OFFSET -0.000000 -62.821102 0.000000
                CHANNELS 3 Zrotation Xrotation Yrotation
                JOINT LeftToeBase
                {
                    OFFSET -0.000000 -11.507608 26.556021
                    CHANNELS 3 Zrotation Xrotation Yrotation
                    End Site
                    {
                        OFFSET -0.000000 0.000000 7.081605
                    }
                }
            }
        }
    }
    JOINT RightUpLeg
    {
        OFFSET -17.704014 0.000000 0.000000
        CHANNELS 3 Zrotation Xrotation Yrotation
        JOINT RightLeg
        {
            OFFSET -0.000000 -81.181816 0.000000
            CHANNELS 3 Zrotation Xrotation Yrotation
            JOINT RightFoot
            {
                OFFSET -0.000000 -62.821102 0.000000
                CHANNELS 3 Zrotation Xrotation Yrotation
                JOINT RightToeBase
                {
                    OFFSET -0.000000 -11.507608 26.556021
                    CHANNELS 3 Zrotation Xrotation Yrotation
                    End Site
                    {
                        OFFSET -0.000000 0.000000 7.081605
                    }
                }
            }
        }
    }
}
MOTION
Frames:    6
Frame Time:    0.008333
-14.113244    152.264450    -97.701035    2.735799    -5.990695    45.955521    -3.519681    0.426071    -2.503447    2.584861    1.280561    -0.868027    -4.206110    3.416825    -18.660444    15.584178    3.238708    -17.228624    13.159719    -4.839944    -19.807091    1.316960    -4.756936    -30.868723    -14.126321    -2.173213    -101.088142    -14.682610    -14.999521    -33.054871    1.297202    13.028372    -5.888490    36.183105    18.137266    43.052254    -12.454294    1.020401    33.102493    -27.013468    -2.610049    29.856886    18.265411    -1.912817    -4.862971    -18.475895    39.955254    -20.465286    6.815206    -30.754257    50.579601    0.000000    0.000000    0.000000    -24.067387    -15.974553    -25.209919    10.567873    31.179075    -18.706793    7.159473    6.572225    -7.465620    0.000000    0.000000    0.000000    
-14.113922    152.263107    -97.709190    2.736499    -5.989605    45.946793    -3.511053    0.442294    -2.513484    2.612828    1.256148    -0.871246    -4.240501    3.394509    -18.674377    15.572446    3.273733    -17.244371    13.185328    -4.864668    -19.805809    1.393670    -4.891009    -30.794514    -13.992793    -2.199847    -101.090225    -14.565224    -14.882101    -33.166859    1.273527    13.031593    -5.872721    36.172009    18.125332    43.042431    -12.449397    1.032234    33.110126    -27.031437    -2.606349    29.866484    18.260708    -1.920178    -4.852497    -18.476978    39.970367    -20.453375    6.805994    -30.755167    50.575195    0.000000    0.000000    0.000000    -24.061308    -15.981126    -25.207298    10.549262    31.172615    -18.700106    7.137208    6.583097    -7.447332    0.000000    0.000000    0.000000    
-14.111611    152.260956    -97.716751    2.738561    -5.989116    45.938324    -3.501915    0.450924    -2.520581    2.632722    1.246577    -0.873681    -4.268104    3.394761    -18.695864    15.573227    3.272930    -17.263483    13.214462    -4.894094    -19.807997    1.446917    -5.007779    -30.699833    -13.910538    -2.242416    -101.139511    -14.573529    -14.822504    -33.264469    1.261261    13.026739    -5.867057    36.174370    18.079256    43.030567    -12.419855    1.076285    33.113251    -27.048279    -2.580164    29.884291    18.251242    -1.926496    -4.847059    -18.474752    39.991127    -20.443796    6.803675    -30.760714    50.578148    0.000000    0.000000    0.000000    -24.061018    -15.984118    -25.179279    10.561675    31.163828    -18.696493    7.141876    6.576978    -7.494006    0.000000    0.000000    0.000000    
-14.104807    152.260010    -97.725937    2.742222    -5.983395    45.932281    -3.490372    0.455474    -2.537461    2.644122    1.235347    -0.879191    -4.284256    3.361557    -18.700716    15.542877    3.312252    -17.274015    13.240859    -4.931254    -19.810410    1.498422    -5.145461    -30.603558    -13.822181    -2.260916    -101.165466    -14.654520    -14.696537    -33.412113    1.246784    13.028947    -5.846987    36.152573    18.066227    43.020054    -12.415019    1.079204    33.119247    -27.034554    -2.581589    29.913256    18.237705    -1.930252    -4.860803    -18.494370    39.994915    -20.416319    6.819705    -30.751293    50.591927    0.000000    0.000000    0.000000    -24.070171    -15.983067    -25.161730    10.572464    31.153492    -18.722673    7.133874    6.577425    -7.467640    0.000000    0.000000    0.000000    
-14.103930    152.258987    -97.735092    2.746848    -5.976068    45.920807    -3.491598    0.462557    -2.542370    2.667071    1.224803    -0.880941    -4.305386    3.328362    -18.713379    15.524719    3.347655    -17.290274    13.260573    -4.962708    -19.818909    1.579300    -5.249961    -30.517748    -13.822570    -2.315407    -101.223969    -14.625943    -14.770012    -33.456623    1.233840    13.027633    -5.836941    36.138718    18.038015    43.007187    -12.392202    1.092240    33.127571    -27.049778    -2.574931    29.898449    18.220781    -1.936338    -4.849058    -18.489698    40.004848    -20.403116    6.808051    -30.753490    50.591366    0.000000    0.000000    0.000000    -24.074837    -15.991581    -25.145895    10.565434    31.147224    -18.709200    7.128999    6.576505    -7.472963    0.000000    0.000000    0.000000    
-14.095304    152.256790    -97.743462    2.758450    -5.969331    45.914753    -3.494116    0.459140    -2.553646    2.691312    1.235986    -0.885154    -4.347192    3.308776    -18.730286    15.537087    3.370210    -17.303982    13.268461    -5.006665    -19.829199    1.638885    -5.250931    -30.416866    -13.712960    -2.555434    -101.325012    -14.806967    -14.835151    -33.524612    1.202195    13.005542    -5.814039    36.140621    18.019094    42.980732    -12.374960    1.111677    33.124779    -27.082287    -2.580972    29.939877    18.195435    -1.938642    -4.855648    -18.484472    40.023708    -20.387266    6.807588    -30.759975    50.583679    0.000000    0.000000    0.000000    -24.093201    -15.994317    -25.152718    10.563932    31.155815    -18.718969    7.132446    6.575783    -7.458583    0.000000    0.000000    0.000000    
